            <svg
              width="18"
              height="27"
              viewBox="0 0 669 995"
              fill="none"
              xmlns="http://www.w3.org/2000/svg"
            >
              <path
                d="M609.164 142.483C591.961 133.793 575.971 132.932 561.858 139.908C554.721 143.502 552.136 145.55 546.315 152.68C539.657 160.68 539.04 161.046 536.227 159.891C533.308 158.656 533.341 158.176 536.486 151.681C540.592 143.063 542.306 129.243 540.834 116.504C538.362 96.0993 530.736 82.8323 514.119 69.8827C486.722 48.6415 455.236 45.6187 432.076 61.9518L425.808 66.3826L423.434 57.6598C419.32 42.8887 413.466 33.0035 402.052 22.0373C395.727 15.8266 381.427 7.51892 371.468 4.0643C352.746 -2.43037 326.91 -0.770897 309.392 7.79017C299.84 12.5544 298.198 13.8146 290.565 23.0825C283.639 31.2122 281.541 34.8137 278.566 42.6181C276.583 47.821 274.9 52.4143 274.925 52.6013C274.762 52.8126 270.51 51.5609 265.226 49.6832C243.057 41.5465 217.392 42.328 198.825 51.5963C183.639 59.0924 176.201 65.4824 166.779 79.2623C154.618 96.8225 148.733 115.846 150.953 130.674L151.888 137.112L143.621 139.332C124.249 144.617 110.453 156.21 103.154 173.136C95.277 191.468 98.7815 208.125 113.87 223.937L120.35 230.603L115.96 231.936C107.367 234.578 99.7584 239.66 94.9623 245.895C89.4345 253.082 88.1665 258.667 90.2236 267.146C91.0611 270.65 95.1352 299.688 99.1443 331.872C106.008 385.933 108.204 404.948 112.213 445.88C115.499 478.349 121.826 528.296 125.062 547.27C128.583 566.967 130.648 576.967 140.861 620.987C148.26 652.92 153.683 680.641 156.936 702.655L159.619 721.036L153.831 716.752C144.742 709.761 127.467 702.697 116.736 701.34C105.631 700.032 90.6969 702.17 81.6571 706.487C68.8615 712.626 63.2768 717.918 49.8314 735.836C43.0518 745.088 36.7111 753.331 35.8738 754.201C33.0612 757.421 23.4765 758.291 14.7291 756.104C4.72978 753.796 1.19352 755.113 0.584064 761.373C0.064094 769.047 14.2351 801.142 20.2592 805.775C27.9743 811.71 37.9573 810.977 49.6716 803.839C55.988 799.782 57.9065 797.726 75.392 774.336C93.3084 750.606 94.7148 748.996 101.243 745.102C110.51 739.614 120.615 737.63 130.029 739.824C134.232 740.702 138.272 741.791 138.801 742.198C139.329 742.604 138.793 745.051 137.59 747.49C134.777 752.896 136.249 765.635 140.33 772.139C142.948 776.171 142.972 776.358 137.811 784.162C134.957 788.528 121.016 807.747 106.782 826.908C67.7384 879.638 55.7888 897.361 54.968 903.458C53.9359 911.579 57.7977 918.587 69.846 930.04L80.4717 940.064L75.895 945.795C72.2369 950.551 71.6842 952.144 72.3916 955.38C73.8145 961.184 78.416 966.574 89.0903 974.784C109.488 990.473 139.421 998.358 153.501 991.862C157.444 990.016 161.484 984.545 164.182 977.537C165.012 975.147 166.564 974.659 172.987 975.057C188.685 975.861 195.115 973.406 198.228 965.203C199.082 963 200.382 952.562 201.121 942.197C203.64 903.931 208.419 872.787 216.409 842.935C218.473 835.44 220.822 826.481 221.53 823.156C222.854 817.278 222.936 817.173 227.082 816.156C232.512 814.782 241.934 809.75 244.129 806.896C246.649 803.62 248.933 804.368 250.584 809.001C252.933 815.35 253.381 824.61 252.333 847.185C250.66 886.101 252.921 899.783 263.425 915.432C270.311 925.943 284.009 935.47 295.634 937.852C309.203 940.55 324.047 936.997 329.737 929.599C332.664 925.794 336.086 909.755 337.15 894.593C338.352 879.033 337.507 878.383 323.866 883.871C310.599 889.31 302.055 885.766 294.859 872.157C289.908 862.63 288.892 854.11 289.403 827.421C289.808 796.277 287.173 784.831 277.182 775.295C273.572 771.678 271.158 770.662 265.305 769.524C261.313 768.809 258.069 767.996 258.045 767.809C258.02 767.622 263.223 763.045 269.474 757.76C275.807 752.37 288.342 741.322 297.431 733.005C332.703 700.925 360.676 679.21 428.067 630.958C517.302 567.211 601.512 489.002 644.311 430.078C654.155 416.624 655.44 414.079 656.334 408.543C658.374 394.3 648.317 383.537 621.27 370.807C618.246 369.49 618.067 368.848 619.692 366.734C621.237 364.726 623.025 364.588 627.863 365.954C635.252 367.937 644.284 366.473 650.283 362.172C659.055 355.799 660.68 342.751 653.656 334.825C650.656 331.508 650.632 331.321 654.022 328.882C664.086 321.484 669.239 309.972 668.027 297.77C666.555 282.844 660.767 274.187 648.198 268.22L643.825 266.034L648.8 258.253C663.505 235.417 661.268 197.867 643.585 171.65C637.089 161.944 621.488 148.767 609.164 142.483ZM612.156 170.522C602.068 175.546 578.144 191.123 575.705 194.294C574.079 196.407 572.786 195.245 569.9 189.156C566.908 182.986 559.705 174.418 553.258 169.459L548.397 165.72L554.453 158.939C569.541 141.948 591.433 142.134 614.318 159.4L622.432 165.473L612.156 170.522ZM510.25 83.2234C504.193 85.6299 467.147 85.8997 466.164 83.4609C465.985 82.8187 465.781 77.6159 465.635 72.1204C465.61 60.9993 465.423 61.0236 476.065 63.1531C484.926 64.7543 495.478 69.8429 504.437 76.5656C510.754 81.256 511.778 82.5486 510.25 83.2234ZM639.074 187.357C647.871 205.225 649.335 227.378 642.856 244.767C639.906 252.758 634.167 261.969 632.793 260.912C632.476 260.669 630.849 251.848 629.191 241.321C625.775 219.517 620.425 198.918 615.198 188C613.222 183.789 611.986 180.147 612.441 179.992C612.978 179.732 616.815 177.805 621.107 175.724C628.537 172.187 629.204 172.196 631.757 175C633.31 176.699 636.602 182.26 639.074 187.357ZM521.006 93.5148C523.046 96.7665 520.469 98.1487 505.706 101.596C492.146 104.792 488.529 106.214 490.537 107.759C493.179 109.791 512.373 108.238 519.795 105.368C524.697 103.587 528.469 104.806 526.355 107.554C524.079 110.513 506.382 120.619 496.171 124.709C490.757 126.936 483.693 128.904 480.758 129.002L475.181 129.254L475.685 122.913C476.172 115.718 474.205 108.654 470.929 106.134C468.815 104.508 465.79 94.4439 466.928 92.9643C467.253 92.5416 473.31 92.3218 480.561 92.5166C487.707 92.6301 498.649 91.963 504.795 90.971C515.884 89.239 518.599 89.6453 521.006 93.5148ZM529.275 128.471C528.86 138.414 526.438 146.811 522.536 151.884C520.341 154.738 518.707 155.331 513.911 155.007L507.887 154.747L507.172 149.991C506.407 144.861 502.236 136.943 498.96 134.423C496.952 132.879 497.383 132.537 505.967 128.375C510.878 125.928 517.885 122.066 521.462 119.602C529.233 114.31 529.916 115.171 529.275 128.471ZM459.392 87.6723L461.108 102.281L456.864 104.736C454.556 105.988 451.889 108.143 450.995 109.305C450.101 110.468 448.735 110.931 447.995 110.362C444.402 107.598 437.255 72.4955 439.612 69.4306C441.238 67.3169 445.262 65.3656 452.327 63.398L457.651 61.9426L457.611 67.4625C457.546 70.6086 458.343 79.6323 459.392 87.6723ZM607.442 191.959L609.979 198.284L605.524 202.763C596.078 211.983 579.69 230.665 578.454 233.583C576.398 238.225 575.78 236.404 577.064 229.486C577.665 226.08 577.803 219.121 577.226 213.967L576.274 204.488L585.745 197.643C599.979 187.228 603.743 184.74 604.271 185.147C604.589 185.391 605.938 188.447 607.442 191.959ZM399.533 36.2477C401.898 39.0767 403.679 41.7919 403.354 42.2146C400.102 46.4421 383.746 55.8973 370.479 61.3365C362.545 64.6536 362.065 64.6211 359.382 61.5483C355.333 56.7521 347.082 44.5175 346.862 42.8348C346.764 42.0868 350.097 39.9405 354.333 38.1519C358.462 36.2819 366.088 32.0543 371.144 28.5422C376.306 25.1113 380.956 22.1276 381.574 21.7617C383.102 21.0869 394.46 30.1589 399.533 36.2477ZM375.062 17.7623C373.924 19.2419 360.787 27.1362 355.235 29.7623C342.521 35.7948 343.212 35.9899 337.984 25.0722C335.301 19.8126 333.309 14.748 333.48 13.87C333.748 11.5531 338.504 10.8375 348.739 11.3086C358.6 11.8285 376.281 16.177 375.062 17.7623ZM616.532 220.818L619.411 234.134L615.029 234.801C612.517 235.224 604.696 235.769 597.681 235.924L584.82 236.461L593.607 226.567C606.02 212.397 612.174 206.364 613.02 207.015C613.442 207.34 615.02 213.6 616.532 220.818ZM410.882 56.9205C412.427 61.473 412.183 61.79 406.696 67.8305C402.965 72.0254 398.282 75.4888 392.299 78.4563C386.316 81.4238 383.544 83.4969 383.715 84.8058C384.373 89.8541 399.9 84.9758 407.81 77.098C410.265 74.781 412.606 73.0493 413.029 73.3745C415.566 75.3255 412.444 92.9422 408.031 100.649C406.502 103.511 403.478 106.568 400.682 108.454C396.219 111.413 395.552 111.405 387.675 107.869C383.138 105.894 375.22 103.504 370.058 102.561C360.823 101.009 360.717 100.927 350.295 91.7334C344.514 86.7828 339.742 82.2712 339.669 81.7102C339.62 81.3363 342.327 80.2224 345.831 79.385C365.333 74.3683 387.372 64.742 401.143 55.1487C404.72 52.6853 408.02 51.0186 408.549 51.4251C409.077 51.8315 410.167 54.3516 410.882 56.9205ZM431.044 81.0073C432.394 90.6244 436.882 107.534 439.614 113.167C441.98 118.183 442.378 120.508 440.996 122.305C440.021 123.573 438.794 125.825 438.135 127.337C437.038 129.857 436.745 129.8 432.079 125.37C425.802 119.533 421.323 119.452 417.096 124.948C414.576 128.224 414.121 128.378 412.495 126.119C411.365 124.745 409.6 122.883 408.332 121.908C406.324 120.363 406.544 119.859 413.388 111.835C419.827 104.339 420.81 102.405 423.704 92.519C427.735 78.967 430.158 74.9428 431.044 81.0073ZM466.117 122.45C465.759 125.539 465.141 130.279 464.922 132.97C463.906 139.758 466.792 141.473 475.645 139.367C487.546 136.578 495.042 140.829 496.359 150.926L496.872 154.853L485.369 157.78C470.549 161.52 459.249 167.463 448.332 177.064C437.064 186.902 429.74 199.267 426.961 212.941C425.936 218.209 424.766 222.355 424.392 222.404C424.018 222.452 420.311 220.274 416.157 217.583L408.694 212.852L412.758 209.755C422.717 202.275 429.561 185.504 429.69 168.277C429.682 160.197 425.836 145.295 422.121 139.41C420.291 136.321 421.73 129.858 424.348 129.516C425.014 129.524 426.567 131.223 427.9 133.426C434.9 145.539 437.811 145.254 445.281 131.824C451.467 120.938 459.718 111.305 462.702 111.581C465.498 111.882 466.783 115.898 466.117 122.45ZM548.324 187.027C546.934 189.49 544 193.962 541.724 196.921L537.497 202.417L529.684 200.108C516.157 196.263 496.491 192.744 484.126 191.981L472.241 191.249L472.525 183.226C472.606 178.746 473.11 174.592 473.679 173.852C475.386 171.633 490.482 167.096 499.319 166.323C516.407 164.664 532.122 168.509 543.617 177.183L550.592 182.548L548.324 187.027ZM560.088 195.571C565.519 205.131 566.942 221.869 563.35 234.413C560.846 242.917 552.79 254.046 546.238 257.754C543.661 259.136 537.532 260.981 532.508 261.827C527.378 262.591 521.33 264.331 519.102 265.478C515.021 267.722 514.834 267.746 508.07 262.543C501.835 257.747 494.778 250.301 494.51 248.244C494.461 247.87 498.68 245.228 504.021 242.439C521.011 233.472 531.417 224.318 545.26 206.538C551.845 197.977 557.316 191.083 557.527 191.246C557.633 191.327 558.836 193.262 560.088 195.571ZM328.131 23.8857C332.741 35.1693 341.375 51.062 347.513 59.4839C350.399 63.386 352.383 66.9303 351.976 67.4587C351.407 68.1986 343.432 70.4752 334.742 72.3697C333.084 72.7762 330.531 72.1585 328.946 70.9391C321.97 65.5739 298.889 29.3175 300.84 26.781C304.661 21.8137 321.489 13.0576 323.708 14.7647C324.342 15.2524 326.293 19.2764 328.131 23.8857ZM622.647 255.295L624.103 267.181L618.607 269.514C615.526 270.677 612.925 271.872 612.657 272.002C612.47 272.026 611.193 269.531 609.738 266.393L607.274 260.629L602.608 260.572C597.462 260.483 594.292 262.418 588.902 269.206L585.138 273.881L574.659 269.353C568.928 266.963 563.01 264.598 561.603 264.021C559.026 263.216 559.245 262.712 566.074 253.834L573.309 244.428L582.186 244.696C587.039 244.729 597.551 244.403 605.558 243.834C613.46 243.183 620.265 242.865 620.582 243.109C620.899 243.353 621.818 248.938 622.647 255.295ZM658.199 290.21C658.865 292.405 659.313 297.291 659.134 301.022C658.825 308.859 653.647 317.997 645.973 324.037C639.511 329.159 638.966 332.273 643.998 337.321C650.876 344.125 650.112 352.116 642.414 355.783C636.862 358.409 621.724 355.345 624.163 352.174C626.033 349.743 625.536 335.736 623.349 326.989C619.202 310.511 605.837 288.96 594.422 280.181C591.675 278.067 591.837 277.856 595.861 273.718C598.186 271.133 600.584 269.108 601.145 269.035C601.812 269.043 602.771 271.295 603.348 274.262C604.942 281.375 607.747 283.196 613.055 280.887C624.664 275.855 630.631 274.22 636.574 274.586C647.711 275.415 655.589 281.138 658.199 290.21ZM527.701 214.058C521.442 220.009 510.833 228.334 509.15 228.554C507.28 228.798 501.963 209.905 502.451 204.898C502.678 201.54 503.052 201.491 509.092 202.605C516.116 203.97 528.099 207.636 530.294 209.156C531.538 209.945 530.831 211.083 527.701 214.058ZM298.841 44.2513C306.305 59.9165 320.678 77.5325 338.491 93.0834L348.807 102.196L341.979 104.513C332.606 107.733 324.509 113.448 319.005 120.822C315.047 126.188 314.079 126.789 312.494 125.57C311.12 124.513 311.193 122.887 312.372 120.261C314.94 115.172 312.541 95.3282 308.249 86.4754C304.688 78.8582 295.127 66.7945 288.786 61.917C285.298 59.2345 284.989 58.324 286.257 52.739C287.614 46.3817 293.166 35.0083 294.435 35.9838C294.857 36.309 296.76 39.959 298.841 44.2513ZM411.447 144.321C418.796 158.384 419.805 171.944 414.578 187.268C412.587 193.138 410.49 196.739 408.116 198.951C403.962 202.821 393.735 208.243 392.467 207.268C392.044 206.943 392.264 202.065 393.133 196.342C395.1 181.538 391.18 152.955 385.636 141.793C383.213 137.07 380.684 132.266 379.766 131.055C378.4 129.331 378.725 128.908 381.026 128.323C382.603 128.022 387.139 127.811 391.326 127.835C397.992 127.916 399.292 128.412 403.113 132.192C405.43 134.647 409.178 140.053 411.447 144.321ZM494.638 206.963C494.866 210.166 496.647 217.255 498.712 222.88C500.671 228.424 501.972 233.294 501.728 233.611C500.184 235.619 488.567 239.131 487.193 238.075C482.12 234.173 471.396 201.533 474.461 199.517C475.859 198.574 491.37 199.402 492.849 200.541C493.459 200.841 494.224 203.784 494.638 206.963ZM377.708 120.389C362.019 123.292 342.468 136.682 329.38 153.697L320.845 164.794L321.755 157.925C322.307 154.145 322.535 148.6 322.25 145.69C321.364 137.439 322.559 133.479 327.412 126.951C337.329 114.057 356.856 109.228 376.814 114.991C385.317 117.494 385.513 118.99 377.708 120.389ZM465.201 204.338C466.942 216.947 468.551 222.727 472.95 231.661C479.584 245.343 490.405 259.049 500.762 267.015L508.372 272.868L503.429 277.982C500.836 280.697 497.796 285.087 496.804 287.688C495.292 291.404 494.187 292.404 491.162 293.274C487.041 294.477 486.813 293.461 490.17 287.128C492.739 282.039 491.601 274.771 488.121 273.609C486.926 273.194 484.048 272.999 481.886 273.186L478.016 273.406L477.268 266.943C476.699 263.309 474.845 257.846 472.829 254.781C468.439 247.367 461.805 244.62 453.139 246.701L447.042 248.067L441.139 239.995C434.871 231.305 434.725 230.183 436.716 217.753C439.211 203.356 448.186 189.064 459.477 181.6L463.509 178.982L463.266 183.673C463.128 186.258 464.055 195.55 465.201 204.338ZM571.384 293.075C554.101 295.425 534.477 301.694 528.144 307.084C526.608 308.425 522.966 309.661 520.031 309.759L514.828 309.962L515.893 305.735C517.177 301.004 514.746 296.947 509.047 294.078C504.698 292.078 505.251 290.485 513.079 282.713C525.956 269.908 541.897 268.208 565.709 277.272C571.099 279.231 578.464 283.214 582.058 285.978L588.586 290.831L571.384 293.075ZM607.699 317.812C612.504 328.404 614.367 341.948 612.196 351.549C608.71 366.361 597.491 380.946 584.964 386.954C573.16 392.677 572.876 391.954 579.842 376.117C590.101 352.72 594.189 327.942 590.57 309.683C588.887 301.155 589.724 300.285 596.87 302.586C600.724 303.699 602.244 305.878 607.699 317.812ZM374.937 137.77C376.514 139.656 376.368 140.721 374.539 142.005C364.824 149.168 355.476 156.948 353.281 159.801C350.111 163.923 349.525 163.809 344.2 158.704L339.875 154.705L345.143 149.168C350.516 143.713 363.889 133.982 367.661 133.014C369.775 132.453 372.051 133.868 374.937 137.77ZM276.21 74.1118C274.34 76.5426 268.731 81.6481 263.829 85.6155L254.7 92.8918L250.261 89.4776C247.936 87.6892 245.009 84.9334 243.961 83.4539C242.148 81.2184 242.367 80.7143 246.09 77.186C248.383 75.0804 252.838 70.6008 256.187 67.1213L262.105 60.7394L267.836 63.1292C270.966 64.5273 274.836 66.4945 276.527 67.7952C279.25 69.7218 279.218 70.2014 276.21 74.1118ZM295.534 88.1343C300.486 97.6619 302.429 106.726 301.478 114.742L300.649 121.506L293.674 124.888C289.837 126.815 285.724 129.538 284.504 131.123C280.115 136.831 278.594 136.839 277.058 131.62C274.236 122.385 266.213 119.914 261.091 126.572C259.872 128.157 258.23 129.417 257.458 129.328C255.246 129.141 233.8 116.346 233.654 115.224C233.662 114.558 236.402 112.964 239.726 111.485C248.921 107.623 269.228 93.4684 278.43 84.5662C286.039 77.2982 286.575 77.038 289.112 78.989C290.591 80.127 293.502 84.216 295.534 88.1343ZM383.352 160.727C385.913 171.612 386.32 179.831 384.369 180.181C382.499 180.425 368.719 175.377 362.704 172.264L356.371 168.906L359.703 164.573C362.874 160.451 375.165 149.72 377.897 148.793C380.067 147.939 380.612 149.199 383.352 160.727ZM581.482 309.252L583.189 315.78L568.361 318C553.825 320.277 553.639 320.302 546.81 316.058C542.997 313.798 539.875 311.734 539.826 311.36C539.371 309.327 577.107 300.505 579.327 302.212C579.644 302.456 580.725 305.643 581.482 309.252ZM251.024 61.8048C238.131 73.7557 237.164 74.3573 234.733 72.4876C233.465 71.5121 230.156 67.2849 227.433 63.1715L222.376 55.7495L229.367 55.4078C237.212 55.0498 250.902 56.4963 252.886 57.8538C253.837 58.5854 253.235 59.8049 251.024 61.8048ZM581.247 341.705C580.134 347.746 578.581 352.607 577.345 353.339C575.329 354.648 561.753 352.616 559.217 350.665C558.371 350.015 558.241 347.559 558.802 345.299C559.444 342.934 559.582 338.162 558.931 334.634C558.021 328.382 558.265 328.065 561.719 326.854C563.622 326.13 569.288 325.105 574.149 324.471L583.019 323.219L583.076 327.3C583.157 329.381 582.198 335.876 581.247 341.705ZM223.669 70.033C226.945 74.7398 233.043 82.1211 237.205 86.332C241.473 90.6242 245.343 94.7782 245.92 95.5586C247.075 97.1194 238.401 102.054 227.743 105.632L221.289 107.9L211.525 99.3809C198.94 88.1871 186.794 75.9853 186.444 74.0342C186.07 71.8962 199.914 62.8638 208.353 59.7661C213.71 57.8311 215.604 57.774 216.572 59.3592C217.198 60.5136 220.393 65.3261 223.669 70.033ZM385.109 198.244L383.768 205.455L377.964 204.691C374.793 204.44 367.859 204.489 362.518 205.09C353.226 206.018 352.828 205.879 344.812 200.555C338.544 196.238 335.3 193.239 330.869 186.971C325.52 179.492 325.235 178.769 327.105 174.151C328.202 171.631 330.356 167.737 331.901 165.729L334.746 162.03L345.599 170.882C357.322 180.572 366.574 185.165 378.492 187.603C382.321 188.53 385.589 189.53 385.955 190.147C386.215 190.684 385.825 194.253 385.109 198.244ZM310.462 141.333C314.349 152.901 309.586 171.778 299.457 184.509C290.897 195.419 288.564 196.484 280.036 193.794C276.077 192.599 268.037 191.461 262.224 191.364C252.143 191.348 251.745 191.21 253.615 188.779C256.704 184.763 274.897 168.983 283.424 162.926C287.7 159.991 291.416 157.129 291.822 156.601C293.285 154.699 289.513 153.479 285.871 154.715C279.685 156.853 262.28 169.203 253.858 177.528C249.379 181.82 245.737 185.243 245.631 185.162C245.631 185.162 243.721 182.178 241.55 178.658C239.379 175.138 236.729 171.586 235.672 170.773C233.347 168.985 232.696 161.083 234.346 154.782C235.826 149.36 237.216 149.083 240.013 153.758C242.988 159.074 248.02 159.749 250.101 155.294C254.45 146.359 262.75 132.726 264.416 131.653C267.424 129.929 268.579 131.49 269.994 140.148C270.888 145.546 272.132 148.521 274.067 149.505C276.53 150.895 277.416 150.399 283.741 143.488C296.82 129.326 306.218 128.48 310.462 141.333ZM467.017 263.431C468.049 266.244 468.448 270.756 468.228 273.447C467.643 277.707 466.936 278.845 463.44 281.202C461.262 282.723 459.01 283.682 458.693 283.438C458.27 283.113 457.563 279.878 457.18 276.219C456.798 272.561 455.294 266.862 454.001 263.513C451.204 256.652 452.058 254.449 457.228 254.725C462.293 254.92 465.09 257.407 467.017 263.431ZM642.074 401.276C646.863 408.828 639.49 418.632 626.54 422.128L621.483 423.454L618.004 415.731C615.564 410.154 615.085 407.935 616.581 407.74C619.572 407.349 622.263 403.195 621.604 400.333C621.076 397.74 614.174 392.936 606.955 390.075C603.955 388.945 603.93 388.758 608.198 384.303C610.629 381.799 612.921 379.693 613.401 379.725C614.71 379.555 634.424 392.195 637.294 395.244C638.928 396.837 641.082 399.503 642.074 401.276ZM546.282 330.96C553.51 346.275 540.308 361.689 517.602 364.747C504.059 366.609 484.946 365.87 469.858 363.18L456.42 360.75L453.168 354.043C451.452 350.369 447.891 344.938 445.501 341.922C443.03 339.012 441.249 336.297 441.493 335.98C441.843 335.744 451.102 335.297 461.931 335.215C497.912 334.799 509.512 332.619 502.96 327.579C500.106 325.385 488.326 324.735 465.678 325.313C457.248 325.557 450.02 325.549 449.598 325.224C449.281 324.98 450.435 322.167 452.288 318.883C454.06 315.704 456.361 308.558 457.36 303.104C459.449 291.421 461.668 288.755 474.139 283.039C485.105 278.186 485.601 279.072 478.521 291.12C473.318 300.071 473.091 301.241 475.839 303.355C477.635 304.737 481.131 304.566 488.114 302.704C506.039 297.988 510.519 300.256 503.406 310.597C497 319.8 499.431 321.669 515.137 319.62C526.624 318.026 535.461 319.441 541.119 323.456C542.469 324.326 544.721 327.74 546.282 330.96ZM419.71 234.614C420.043 235.712 416.515 236.362 409.605 236.598C392.558 237.111 377.51 242.022 354.073 254.778L349.911 257.128L348.854 251.941C348.196 249.08 346.082 243.08 343.976 238.601C339.634 229.374 339.464 228.065 342.634 223.943C351.739 212.107 384.98 213.284 408.158 226.233C416.978 231.167 418.962 232.525 419.71 234.614ZM438.954 259.677C449.815 280.984 447.41 314.29 434.233 323.331C429.258 326.737 427.551 326.77 423.323 323.518C421.632 322.217 416.226 319.405 411.291 317.291L402.536 313.585L407.364 302.496C413.404 288.302 416.208 277.001 417.581 260.564C418.174 253.45 418.889 247.272 419.133 246.955C419.702 246.215 431.214 249.182 433.197 250.539C434.124 251.084 436.661 255.222 438.954 259.677ZM568.534 380.54C565.608 386.532 562.771 391.751 562.421 391.987C560.332 392.735 542.358 388.329 535.512 385.419C528.163 382.29 520.676 377.372 521.489 376.315C521.733 375.998 525.375 374.762 529.577 373.453C538.357 370.786 546.121 366.16 550.023 361.087C552.461 357.917 553.209 357.819 557.615 359.526C560.217 360.518 565.347 361.94 569.046 362.599L575.753 363.72L574.785 366.509C574.338 368.183 571.436 374.362 568.534 380.54ZM605.288 399.895C600.443 401.383 600.427 404.903 605.582 413.073C612.151 423.34 611.834 425.283 603.712 424.251C600.119 423.674 592.193 421.951 586.161 420.171C556.398 411.408 548.171 410.295 540.903 413.62C538.839 414.555 533.945 417.856 530.148 420.823C521.775 427.336 516.695 428.474 505.468 426.231C492.672 423.622 483.859 420.208 470.746 412.981C464.072 409.193 456.918 405.372 454.877 404.307C451.324 402.584 451.3 402.397 454.202 396.219C457.405 389.43 459.03 382.943 459.03 376.383C458.989 370.968 459.501 370.521 464.363 372.074C468.346 373.456 468.712 374.073 470.029 381.983C473.802 405.071 499.476 421.117 525.636 416.848C533.546 415.531 546.448 409.474 549.293 405.775C551.325 403.133 553.17 402.702 560.926 403.116C570.494 403.579 582.737 401.221 591.509 397.034C596.606 394.563 603.191 394.749 606.76 397.326C608.556 398.708 608.394 398.919 605.288 399.895ZM409.744 253.695C409.517 257.052 409.053 260.06 408.728 260.483C408.403 260.905 405.46 261.67 402.2 262.19C399.046 262.792 392.543 264.686 387.827 266.442C378.666 269.825 378.958 269.882 373.576 260.696C371.381 256.989 371.414 256.509 374.283 255.184C383.697 250.818 407.045 245.394 409.158 247.02C409.687 247.427 409.89 250.443 409.744 253.695ZM322.35 192.361C324.943 196.206 330.236 201.791 334.065 204.905L341.089 210.644L336.78 216.245L332.391 221.952L327.993 217.392C323.96 213.449 312.237 205.946 302.799 201.378L299.669 199.98L307.464 190.5C314.285 182.289 315.309 181.395 316.407 183.248C317.033 184.403 319.756 188.516 322.35 192.361ZM197.883 98.3083C208.639 108.6 234.175 127.232 245.15 132.645C249.125 134.694 252.304 136.466 252.353 136.84C252.401 137.214 251.036 139.864 249.426 142.831L246.508 148.156L241.435 144.254C236.866 140.572 236.175 140.377 233.11 142.393C229.859 144.434 228.46 147.564 225.689 158.384C225.022 160.563 224.226 160.286 217.145 154.84C204.462 145.085 184.683 137.778 168.481 136.754L162.725 136.364L161.717 131.551C159.595 121.845 165.276 101.992 174.633 86.985L179.201 79.7333L183.705 84.375C186.209 86.8056 192.64 93.0976 197.883 98.3083ZM618.354 446.111C575.603 494.475 529.983 537.603 478.387 578.659C454.527 597.651 446.723 603.423 403.598 634.341C347.961 674.308 310.095 704.73 280.977 732.965C273.449 740.127 266.889 746.688 266.32 747.428C264.857 749.33 243.403 752.51 233.965 752.315C216.129 751.885 192.846 745.415 177.115 736.343C167.871 731.084 167.554 730.84 167.838 727.19C168.082 720.312 166.179 696.981 163.902 678.072C160.909 654.407 157.421 636.416 147.526 592.64C136.012 541.563 131.971 514.231 123.683 430.311C121.268 405.24 116.087 361.894 112.241 333.872C108.419 306.036 105.898 283.071 106.54 282.892C107.288 282.794 108.694 283.371 109.54 284.022C110.491 284.753 118.824 288.135 128.116 291.581C137.303 294.947 146.481 298.979 148.489 300.523C151.765 303.043 151.838 303.604 149.603 307.604C140.19 325.091 139.93 326.741 143.629 338.333C148.044 352.495 156.428 421.855 160.585 481.403C162.822 512.393 165.554 537.708 166.758 537.456C168.359 537.342 170.106 516.482 170.495 493.231C170.966 461.128 169.355 435.667 164.158 393.654C161.865 373.891 159.986 357.307 160.1 356.722C160.401 356.112 164.376 358.16 169.246 361.233C197.537 379.125 235.185 390.757 258.306 388.691C264.126 388.122 269.061 388.048 269.028 388.528C269.394 391.332 262.356 432.85 252.814 485.058C241.403 546.257 239.03 561.589 240.07 565.922C240.957 569.8 245.939 556.98 252.987 532.29C260.034 507.601 274.705 432.76 278.63 401.632C281.555 378.146 282.157 376.926 293.123 372.073C299.798 369.3 311.594 370.804 313.464 374.933C314.033 376.38 313.472 380.827 312.009 384.916C310.651 389.087 309.692 395.582 309.806 399.371C310.506 412.02 299.525 455.383 278.041 524.647C264.353 569.124 258.168 590.944 258.054 595.903C257.965 598.862 258.209 598.545 261.07 593.513C277.011 565.571 311.061 462.911 316.904 425.352C317.311 422.637 317.928 420.084 318.254 419.662C318.579 419.239 325.164 423.799 332.96 429.628C352.935 444.992 368.463 451.047 386.282 450.624L393.298 450.469L365.302 504.8C314.229 603.786 299.76 633.533 296.655 645.442C295.59 649.67 295.753 649.458 300.695 642.158C311.393 626.5 321.302 609.899 336.324 582.933C358.109 543.675 401.485 459.289 409.012 441.193C417.88 420.259 420.595 416.292 427.237 413.999C434.44 411.633 445.724 413.584 455.764 419.119C475.023 429.728 480.088 432.109 490.209 435.352C501.525 439.01 512.411 440.823 519.191 440.318L523.329 439.969L508.062 458.505C499.592 468.642 472.961 500.641 448.899 529.737C386.435 604.824 363.341 635.505 381.135 619.587C407.799 595.856 481.392 511.331 533.946 444.098C551.773 421.14 548.692 422.302 573.536 429.805C594.421 436.112 605.68 437.876 616.948 436.786C622.02 436.314 626.37 436.127 626.557 436.103C626.768 436.265 623.085 440.834 618.354 446.111ZM404.811 284.384C403.388 289.513 401.576 293.838 401.015 293.911C399.998 294.139 389.251 283.181 385.999 278.661C384.609 276.751 384.771 276.539 388.494 275.198C390.665 274.344 395.965 272.702 400.087 271.498C409.078 268.994 409.208 269.263 404.811 284.384ZM329.953 240.431C335.579 249.3 337.587 263.965 334.344 271.9C330.881 280.338 323.248 287.419 311.981 292.883C306.721 295.566 302.03 297.509 301.689 297.078C301.372 296.834 301.957 292.574 303.03 287.68C305.688 275.258 302.256 250.415 296.126 236.953C293.215 230.677 292.142 226.823 293.191 226.116C294.508 225.279 304.564 225.108 314.343 225.733C319.14 226.058 323.701 230.407 329.953 240.431ZM370.276 271.11C377.187 281.808 384.203 290.4 391.454 297.155L398.365 303.48L396.081 307.106C393.878 310.626 393.317 310.699 386.244 308.96C382.122 307.976 374.985 307.196 370.424 307.221C362.238 307.148 362.132 307.067 355.14 300.848C344.588 291.385 341.604 286.736 343.653 282.76C344.555 280.931 346.091 277.403 347.189 274.883C348.977 270.371 351.188 268.371 360.244 262.72C362.715 261.257 363.943 261.192 364.805 262.696C365.512 263.744 367.918 267.614 370.276 271.11ZM293.158 217.848C287.386 218.792 279.549 220.67 275.533 221.954C267.046 224.678 247.032 234.516 245.243 236.841C242.13 240.67 244.674 217.899 248.388 208.477C250.315 203.567 253.209 202.428 263.688 202.582C271.606 202.785 281.467 205.492 294.385 211.223C304.466 215.612 304.352 216.198 293.158 217.848ZM539.862 400.54C538.318 402.548 527.416 406.443 521.222 407.061C502.687 409.289 484.574 398.721 479.273 382.869C478.24 380.056 477.955 377.146 478.443 376.512C478.931 375.878 485.199 375.821 492.393 376.308L505.531 377.161L515.563 385.55C522.294 391.232 527.692 394.712 532.017 396.524C539.927 399.581 540.35 399.906 539.862 400.54ZM231.015 183.171C233.006 186.048 234.982 190.259 235.543 192.373L236.641 196.413L227.65 201.104C222.658 203.657 218.171 206.43 217.683 207.064C215.895 209.389 214.383 206.544 212.732 197.536C210.894 188.553 198.195 160.45 194.707 157.768C191.22 155.085 194.349 154.296 198.853 156.751C201.292 157.954 204.154 159.482 205.162 159.921C209.593 161.815 227.795 178.171 231.015 183.171ZM285.964 234.856C289.736 242.635 294.672 260.057 293.533 261.536C290.363 265.658 270.926 267.529 258.13 264.92C247.488 262.79 245.61 261.514 244.228 254.563C242.927 247.507 243.333 246.978 257.592 238.938C266.185 234.108 281.435 227.84 282.598 228.734C282.915 228.978 284.427 231.823 285.964 234.856ZM186.944 160.207C188.57 162.467 189.716 164.694 189.391 165.117C189.066 165.54 185.651 165.605 181.79 165.158C170.628 164.142 152.312 168.053 140.907 173.915C135.192 176.752 130.128 178.744 129.493 178.256C128.965 177.85 127.274 174.363 125.908 170.452C122.81 162.014 123.761 160.559 135.167 154.697C144.532 149.957 158.189 147.51 169.538 148.501C177.716 149.24 179.7 150.598 186.944 160.207ZM433.819 348.581C446.86 363.994 449.299 382.691 439.788 395.057C436.618 399.179 435.114 400.04 430.334 400.569C427.237 400.878 421.936 402.52 418.449 404.211L412.303 407.39L413.091 397.399C414.294 381.839 409.13 356.841 402.513 346.2C400.236 342.599 401.553 341.761 409.398 341.403C415.723 341.054 427.421 341.809 428.372 342.541C428.795 342.866 431.242 345.589 433.819 348.581ZM400.39 334.307C386.44 336.697 376.449 340.283 362.54 348.088L352.687 353.462L353.451 345.471C354.483 332.976 358.173 321.179 361.498 319.7C365.815 317.805 378.903 318.285 387.139 320.918C394.26 323.032 407.471 328.819 411.202 331.185C412.129 331.729 407.178 333.136 400.39 334.307ZM201.017 187.18C202.96 191.87 205.123 200.431 205.855 206.04C207.156 215.283 206.953 216.641 203.701 220.868C201.75 223.405 199.385 227.136 198.401 229.071C196.296 233.339 195.418 233.168 186.361 227.885L180.166 224.129L182.597 212.878C185.051 201.813 184.677 188.741 181.717 177.718L180.156 172.312L186.513 173.669C195.082 175.213 196.927 176.969 201.017 187.18ZM235.91 219.233C231.066 242.589 235.132 272.294 244.993 285.935C246.619 288.195 247.684 290.528 247.359 290.951C246.303 292.324 234.157 284.496 226.084 277.278C206.085 259.54 202.539 239.655 216.538 224.518C222.293 218.347 235.365 209.225 236.845 210.363C237.267 210.689 236.739 214.656 235.91 219.233ZM344.548 303.466C347.466 306.888 350.043 309.88 350.092 310.254C350.141 310.628 344.158 313.595 337.752 316.238C337.484 316.368 336.654 314.384 335.915 311.628C335.175 308.872 332.923 305.458 330.809 303.832C326.98 300.719 327.094 300.134 332.296 295.556C335.044 293.296 335.873 293.093 337.369 295.085C338.393 296.377 341.548 300.149 344.548 303.466ZM173.629 180.58C174.385 184.189 175.173 187.319 175.303 187.587C175.352 187.961 171.149 189.27 166.012 190.701C160.768 192.051 153.809 194.1 150.354 195.311L144.168 197.45L139.697 192.328C135.225 187.207 135.201 187.02 138.192 184.443C143.395 179.866 168.726 171.426 171.263 173.377C171.791 173.783 172.872 176.97 173.629 180.58ZM396.082 353.029C400.261 362.467 403.937 376.06 402.798 377.539C399.709 381.555 380.004 383.556 367.395 380.923C356.379 378.842 354.583 377.46 353.631 370.168L352.802 363.811L359.199 359.648C370.572 352.079 390.172 343.437 392.18 344.981C392.603 345.306 394.318 348.981 396.082 353.029ZM295.128 286.144C294.039 298.932 292.608 300.354 281.382 300.298L272.049 300.185L264.187 293.129C259.545 288.885 254.838 283.414 252.724 279.602L249.228 273.212L260.358 274.707C271.089 276.064 284.193 275.21 291.29 272.763C295.574 271.348 296.111 273.275 295.128 286.144ZM345.744 332.309C339.932 354.08 344.511 389.898 355.071 403.068C360.559 410.148 352.649 407.092 339.755 397.175C329.926 389.615 326.203 384.396 327.243 379.981C328.397 374.982 325.129 367.421 320.373 363.763C316.568 360.837 316.495 360.276 317.958 354C319.275 348.789 320.828 346.114 325.234 341.261C330.29 335.562 345.76 324.416 347.028 325.391C347.345 325.635 346.801 328.748 345.744 332.309ZM327.232 312.856C327.753 313.929 328.013 316.653 327.663 319.075C327.062 322.481 325.924 323.961 321.965 327.14C315.502 332.262 306.512 345.7 305.423 351.927L304.537 356.797L295.529 358.448C288.66 359.724 284.717 361.57 277.401 366.708C265.833 374.968 259.459 377.131 248.322 376.302C226.925 374.815 199.155 364.557 172.522 348.445C165.189 343.983 161.498 338.284 163.18 333.691C164.806 329.39 174.553 326.122 184.065 326.877C196.909 327.673 199.478 324.771 193.909 315.609C189.933 309.187 187.803 302.334 189.624 301.716C192.705 300.554 200.168 303.098 209.225 308.382C217.354 313.121 219.704 315.096 225.46 322.047L232.159 330.395L223.851 331.575C212.282 333.274 204.112 336.242 201.348 339.835L198.991 342.9L203.332 343.379C205.649 343.648 212.006 342.818 217.355 341.55C229.338 338.655 243.557 338.321 246.727 340.76C250.215 343.442 263.523 345.604 269.165 344.393C278.229 342.45 287.244 335.759 296.91 323.848C306.575 311.938 310.933 308.898 318.721 308.832C323.468 308.783 325.192 309.604 327.232 312.856ZM175.085 209.96L174.134 220.162L170.687 218.52C165.224 216 151.802 205.676 151.981 204.132C152.07 203.359 154.192 202.132 156.679 201.522C170.166 197.766 175.645 196.765 175.735 198.18C175.832 198.928 175.581 204.285 175.085 209.96ZM404.369 404.147C403.783 408.407 402.475 412.951 401.581 414.114C399.955 416.228 391.037 417.106 383.639 415.789C378.582 414.928 366.347 403.498 361.884 395.523L358.388 389.134L366.054 390.32C377.5 392.06 389.076 391.88 396.97 389.709L404.035 387.742L404.677 391.936C404.994 394.367 404.848 399.806 404.369 404.147ZM121.234 181.996C127.616 194.475 137.226 204.726 155.005 218.569C166.631 227.511 173.273 231.779 182.606 236.266C200.556 244.858 199.337 248.63 179.541 244.843C162.965 241.681 147.373 234.398 131.674 222.66C119.122 213.173 118.227 212.149 114.634 205.011C111.016 197.687 110.024 189.354 111.942 182.924C113.356 178.46 115.958 172.892 116.486 173.298C116.697 173.461 118.836 177.46 121.234 181.996ZM277.887 328.898C260.1 341.962 238.955 330.745 225.418 301.325C221.418 292.529 221.321 291.781 224.133 292.935C225.833 293.569 228.93 295.447 231.125 296.967C236.995 301.145 255.091 308.672 265.302 311.143C273.838 313.167 288.552 313.719 291.585 312.183C295.34 310.362 283.35 324.857 277.887 328.898ZM205.776 273.937C207.532 276.465 209.549 281.717 210.167 285.725C210.866 289.627 211.874 294.44 212.517 296.448C213.728 299.902 213.728 299.902 207.444 296.919C192.754 289.994 181.259 292.254 179.56 302.554C179.186 304.79 178.487 305.261 175.877 304.936C169.252 303.709 165.545 301.53 162.48 296.986C160.911 294.434 157.699 290.954 155.35 288.979C146.683 282.313 136.139 263.437 132.561 248.406C130.301 239.097 131.545 237.699 138.747 241.894C153.446 250.34 178.396 257.923 191.013 257.703L197.386 257.727L199.955 263.572C201.41 266.71 204.02 271.409 205.776 273.937ZM399.305 432.381C396.866 435.551 388.81 437.934 381.559 437.739C367.722 437.357 344.106 425.416 331.488 412.515C325.903 406.874 321.586 400.021 322.724 398.541C322.887 398.33 327.033 401.687 331.862 405.906C347.699 419.433 372.673 429.39 389.907 428.853C398.817 428.641 401.419 429.633 399.305 432.381ZM123.92 252.861C125.213 258.397 128.286 266.648 130.684 271.184C133.164 275.615 134.928 279.663 134.684 279.98C133.709 281.249 111.799 271.462 106.727 267.56C100.597 262.845 100.133 259.292 104.929 253.057C107.693 249.463 119.765 241.423 121.033 242.398C121.245 242.561 122.521 247.244 123.92 252.861ZM174.813 317.911C166.074 319.431 159.099 322.814 155.254 327.594C152.222 331.317 154.733 324.334 158.79 317.529L163.09 310.408L169.675 312.781C173.447 314.001 177.544 314.797 178.829 314.439C180.138 314.269 181.975 314.504 182.926 315.236C183.877 315.968 180.691 317.049 174.813 317.911ZM240.217 777.646L228.081 793.207L235.486 787.296L242.892 781.386L242.965 786.32C243.023 790.401 242.202 792.125 237.983 796.954C226.545 809.856 207.376 809.41 180.393 795.721C163.272 786.925 148.224 769.968 146.614 757.627C145.882 752.018 150.255 745.457 155.824 743.685L159.384 742.555L160.572 750.196C162.564 764.008 168.052 771.089 181.547 777.6C190.059 781.624 200.432 783.883 205.781 782.615C208.456 781.981 208.431 781.794 205.513 780.558C203.708 779.843 196.871 776.266 190.327 772.746C176.181 764.894 172.075 760.39 170.189 751.033C168.709 743.335 169.522 742.278 173.961 745.692C186.009 754.959 218.397 762.713 241.395 761.9C246.785 761.672 251.533 761.623 251.85 761.867C252.167 762.11 246.908 769.167 240.217 777.646ZM276.736 792.278C279.719 801.301 280.199 807.894 278.989 830.681C277.876 849.843 279.616 864.638 284.21 875.068C287.194 881.905 288.535 883.441 296.567 889.619C306.925 897.586 313.306 899.13 322.362 895.667L327.533 893.756L327.541 897.463C327.435 899.569 326.582 906.145 325.387 912.291C323.624 921.364 322.746 923.38 320.274 924.843C314.478 927.787 303.211 928.876 296.032 927.056C289.838 925.487 287.374 924.097 280.09 917.821C262.749 902.969 260.123 890.857 262.096 833.836C262.632 820.455 260.038 805.676 256.103 800.294C254.03 797.522 253.241 794.393 253.68 791.198C254.005 788.588 254.086 784.109 253.826 781.385L253.354 776.313L257.622 776.231C262.955 776.296 268.955 778.556 271.849 781.791C273.085 783.246 275.215 787.912 276.736 792.278ZM157.059 732.019C156.734 732.442 154.401 733.507 151.775 734.515C147.97 735.962 145.946 735.751 141.841 733.434C136.012 730.296 121.183 728.143 114.046 729.549C96.6164 732.965 88.9912 739.379 66.3844 769.427C50.7685 790.385 48.0371 793.499 43.501 795.897C37.8918 798.816 29.0145 800.735 27.1121 799.271C25.6325 798.133 16.2096 779.111 13.3965 771.396L11.3314 765.771L17.9814 767.185C25.8833 768.721 36.9474 766.802 41.4754 762.883C43.1744 761.331 50.0028 752.453 56.6767 743.12C67.7484 727.413 69.236 725.698 76.2515 721.17C95.2334 708.519 114.581 707.421 136.458 717.688C144.466 721.492 157.953 730.856 157.059 732.019ZM206.938 834.473C198.037 866.82 193.185 897.404 190.081 939.929C189.147 950.985 187.798 961.05 186.904 962.212C185.766 963.692 181.652 964.228 174.588 964.009C168.751 963.725 162.906 964.107 161.377 964.782C157.971 966.367 153.825 971.757 152.078 977.31C150.801 981.375 150.289 981.822 144.973 982.611C132.12 984.668 109.146 976.922 95.1464 965.817C90.7889 962.297 86.2769 958.322 85.1224 956.761C83.1794 954.258 83.2932 953.672 87.9186 948.315C94.7064 940.583 93.7876 937.185 82.0482 926.642C70.5202 916.261 65.8211 910.123 66.1136 905.807C66.333 903.116 70.2267 896.523 80.4042 881.979C95.012 860.581 148.85 786.43 149.598 786.332C149.972 786.284 153.403 789.259 157.492 792.909L164.85 799.745L158.314 810.867C138.244 845.052 121.686 877.733 120.198 886.009C119.597 889.415 119.808 889.578 121.849 888.456C125.019 886.521 141.391 860.425 158.266 830.174L172.849 804.216L181.361 808.24C187.328 810.979 189.735 812.662 189.296 813.67C188.914 814.386 184.736 826.816 179.948 841.132C168.609 874.463 160.952 901.039 161.131 906.055C161.164 909.949 161.245 909.843 165.48 901.494C170.918 890.706 177.941 872.39 188.695 841.132C193.394 827.588 197.425 816.222 197.832 815.694C198.482 814.849 208.067 816.165 210.132 817.417C210.766 817.905 209.392 825.595 206.938 834.473Z"
                fill="black"
              />
            </svg>
