            <svg viewBox="0 -100 315 400">
              <!-- neck -->
              <g transform="translate(96, -20)">
                <svg
                  width="20.5px"
                  height="24.25px"
                  viewBox="0 0 82 97"
                  fill="none"
                  stroke="black"
                  stroke-width="6"
                >
                  <path
                    d="M2.99996 19.8666C6.06663 12.6666 12.8666 6.53324 21 3.33324C30.7333 -0.400085 38.6 -0.133415 47.1333 4.39992C54.4666 8.26659 60.3333 15.0666 60.3333 19.7332C60.3333 23.5999 70.4666 45.4666 76.4666 54.5332C82.3333 63.3332 82.8666 67.8666 79.1333 75.9999C68.8666 98.3999 33.4 104 17 85.8666C14.3333 82.9333 12.6 79.9999 13 79.3333C13.8 78.1332 9.79996 56.9333 7.26663 47.9999C6.59997 45.7332 4.59996 41.1999 2.86663 37.9999C-0.600036 31.3333 -0.466702 27.8666 2.99996 19.8666Z"
                  />
                </svg>
              </g>

              <!-- head -->
              <g transform="translate(84, -50)" class="bride-head">
                <svg
                  width="59"
                  height="76"
                  viewBox="0 0 59 76"
                  fill="none"
                  xmlns="http://www.w3.org/2000/svg"
                >
                  <g clip-path="url(#clip0_2063_10)">
                    <path
                      d="M19.346 0.666657C16.346 1.16666 13.4127 2.16666 10.246 3.73332C6.11268 5.76667 4.646 7.13332 3.01267 10.4C1.07934 14.2333 1.27934 17.1333 3.57935 19.4C5.246 21.0333 5.37935 21.7667 4.51267 24.3C4.146 25.3333 3.246 26.6668 2.01268 28C-0.0539906 30.2 -0.387323 31.1333 0.679342 32.0333C3.246 34.2 3.41267 34.4668 3.01267 35.2C2.646 35.9 2.846 37.2 4.07935 42.1668C4.57935 44.2 5.946 45.4333 8.31268 46.0333C10.246 46.5 10.646 46.5 13.146 45.9668C17.6127 45.0333 19.146 43.9 21.6793 39.5668C22.4127 38.3333 23.446 36.9 24.0127 36.3668L25.0128 35.4L25.346 36.2C25.5128 36.6333 27.0127 39.8 28.646 43.2C32.246 50.6333 33.646 52.3668 38.4128 55.1668C40.1128 56.1668 42.1127 57.6 42.8792 58.3333C44.046 59.5 44.3128 60.0668 44.9793 62.6668C45.3793 64.3 45.846 66.2 46.0127 66.8333C46.346 68.1333 46.8793 70.6668 47.4128 73.5668C48.046 77.1333 48.7127 75.5 48.7127 70.3333C48.7127 68.4668 48.9793 65.9333 49.4128 63.9333C51.0128 56.4668 50.9793 53.3668 49.3128 50.2C48.6128 48.8668 48.4128 48.1333 48.5793 47.4C48.8793 46.0333 47.8128 41.7668 46.4793 38.9L45.346 36.4668L46.0127 34.0668C46.3792 32.7333 46.8127 31.3 47.0127 30.8333C47.3127 30.0668 47.346 30.1333 47.346 31.4C47.3793 33.0668 47.646 33.8333 48.1792 33.8333C49.146 33.8333 50.2792 29.7333 49.746 28.0333C49.0127 25.6 49.0128 25.3 49.8128 25.2668C50.8793 25.1668 52.3792 23.3666 52.3792 22.1666C52.3792 21.6333 52.1127 20.9333 51.746 20.6C51.4127 20.2667 51.046 19.4333 50.9128 18.7666C50.746 17.9333 50.346 17.2666 49.6128 16.7L48.5793 15.8667L49.3792 15.0333C49.8792 14.4667 50.5127 14.1666 51.2127 14.1666C51.7792 14.1666 52.5127 13.9666 52.8792 13.7C53.246 13.4666 54.046 13.1333 54.6128 13.0333C55.6793 12.8 57.046 11.4666 57.046 10.6666C57.046 10.4333 57.2793 10.0667 57.546 9.83332C58.1793 9.3 58.1793 7.7 57.546 7.16665C56.5128 6.33332 52.0793 7.63333 51.2793 9.03333C51.146 9.3 50.7127 9.5 50.3792 9.5C50.0127 9.5 49.1128 10.1 48.3128 10.8333C47.0128 12.1 46.846 12.1667 46.0127 11.7667C45.5127 11.5 44.546 10.5666 43.8792 9.66665C40.246 4.83332 35.046 1.76666 28.5793 0.633325C25.3793 0.0666588 22.7794 0.0666582 19.346 0.666657ZM57.1792 8.3C57.4792 8.73333 57.4128 8.96668 56.9793 9.3C56.646 9.53333 56.3792 10 56.3792 10.3C56.3792 11.1333 54.846 12.5 53.9128 12.5C53.4793 12.5 53.046 12.6667 52.9793 12.8667C52.9128 13.0333 52.1792 13.3 51.3792 13.4C49.9792 13.6 47.7127 14.9667 47.7127 15.6C47.7127 15.7333 48.3128 16.4666 49.0793 17.2C50.346 18.4333 50.4127 18.6 50.2127 19.9C50.046 20.8667 50.0793 21.2 50.346 21C50.5793 20.8667 50.946 20.9666 51.2127 21.1666C52.446 22.1666 51.146 24.3 49.3128 24.3333L48.146 24.4L47.946 21.0333C47.8127 18.6 47.546 17.0667 46.946 15.5C45.546 11.7333 45.5793 11.9 46.4128 12.8333C46.946 13.4667 47.1793 13.5333 47.3128 13.2C47.3793 12.9333 47.9793 12.1666 48.6128 11.4667C49.4793 10.5333 50.046 10.1666 50.746 10.1666C51.4792 10.1666 51.8127 9.96667 52.0127 9.4C52.346 8.56667 53.546 7.93333 55.2127 7.73333C56.5792 7.56668 56.7792 7.6 57.1792 8.3ZM48.8128 27.3668C49.246 29 49.0128 32 48.4128 32.6C48.046 32.9668 47.6128 27.5 47.9128 26.3668C48.1793 25.2333 48.2793 25.3668 48.8128 27.3668Z"
                      fill="#F1EBE5"
                    />
                    <path
                      d="M46.5127 29.7333C46.7792 28.8668 47.1793 26.9333 47.4128 25.4668C48.646 16.9 43.8792 7.83332 35.8792 3.63332C33.9792 2.63332 33.246 2.36666 29.7127 1.46666C25.446 0.399995 19.746 0.73333 14.546 2.43333C11.246 3.5 6.046 6.46667 6.046 7.3C6.046 7.56667 5.846 7.83332 5.57935 7.93332C5.31267 8.03332 4.546 9.23332 3.87935 10.6333C2.44601 13.5 2.24601 15.6 3.17935 17.5667C3.87935 19 4.37935 19.2333 4.11267 18C3.91267 16.9333 4.546 16.9 5.67935 17.9667C6.17935 18.3667 7.21267 19 8.01267 19.3L9.446 19.8667L9.246 19C9.11268 18.5333 9.11268 18.1666 9.21268 18.1666C9.31268 18.1666 10.0127 18.8333 10.8127 19.6333C12.2127 21.0667 13.1793 21.5333 17.2127 22.6333C19.7794 23.3667 21.7127 24.2 21.7127 24.5667C21.7127 24.7333 21.5794 24.7666 21.3794 24.6666C20.3794 24.0666 22.246 27.1 23.5127 28.1333C23.9793 28.5333 24.1127 28.5333 24.546 27.9668C24.8127 27.6333 25.046 27.2668 25.046 27.1668C25.0792 26.6668 27.146 25.8333 28.2792 25.8333C29.8127 25.8333 30.6128 26.5 30.9128 28.1C31.3128 30.0333 30.0127 31.8 26.646 33.9333C26.1127 34.2668 25.7127 34.8 25.7127 35.1C25.7127 35.4333 27.2128 38.7 29.0128 42.3668C32.946 50.2668 33.9127 51.5 38.746 54.4668C42.5127 56.8 43.8793 57.9 44.546 59.1668C44.9793 60 46.3792 65.1668 47.246 69.1333C47.4792 70.3 47.7792 71.3333 47.8792 71.4333C47.9792 71.5333 48.046 70.5333 48.046 69.2333C48.046 67.9333 48.4127 65.0333 48.8792 62.7668C50.1127 56.7333 49.9127 52.2 48.3792 50.1C47.846 49.3668 47.6793 48.8 47.8128 47.9M19.346 0.666657C16.346 1.16666 13.4127 2.16666 10.246 3.73332C6.11268 5.76667 4.646 7.13332 3.01267 10.4C1.07934 14.2333 1.27934 17.1333 3.57935 19.4C5.246 21.0333 5.37935 21.7667 4.51267 24.3C4.146 25.3333 3.246 26.6668 2.01268 28C-0.0539906 30.2 -0.387323 31.1333 0.679342 32.0333C3.246 34.2 3.41267 34.4668 3.01267 35.2C2.646 35.9 2.846 37.2 4.07935 42.1668C4.57935 44.2 5.946 45.4333 8.31268 46.0333C10.246 46.5 10.646 46.5 13.146 45.9668C17.6127 45.0333 19.146 43.9 21.6793 39.5668C22.4127 38.3333 23.446 36.9 24.0127 36.3668L25.0128 35.4L25.346 36.2C25.5128 36.6333 27.0127 39.8 28.646 43.2C32.246 50.6333 33.646 52.3668 38.4128 55.1668C40.1128 56.1668 42.1127 57.6 42.8792 58.3333C44.046 59.5 44.3128 60.0668 44.9793 62.6668C45.3793 64.3 45.846 66.2 46.0127 66.8333C46.346 68.1333 46.8793 70.6668 47.4128 73.5668C48.046 77.1333 48.7127 75.5 48.7127 70.3333C48.7127 68.4668 48.9793 65.9333 49.4128 63.9333C51.0128 56.4668 50.9793 53.3668 49.3128 50.2C48.6128 48.8668 48.4128 48.1333 48.5793 47.4C48.8793 46.0333 47.8128 41.7668 46.4793 38.9L45.346 36.4668L46.0127 34.0668C46.3792 32.7333 46.8127 31.3 47.0127 30.8333C47.3127 30.0668 47.346 30.1333 47.346 31.4C47.3793 33.0668 47.646 33.8333 48.1792 33.8333C49.146 33.8333 50.2792 29.7333 49.746 28.0333C49.0127 25.6 49.0128 25.3 49.8128 25.2668C50.8793 25.1668 52.3792 23.3666 52.3792 22.1666C52.3792 21.6333 52.1127 20.9333 51.746 20.6C51.4127 20.2667 51.046 19.4333 50.9128 18.7666C50.746 17.9333 50.346 17.2666 49.6128 16.7L48.5793 15.8667L49.3792 15.0333C49.8792 14.4667 50.5127 14.1666 51.2127 14.1666C51.7792 14.1666 52.5127 13.9666 52.8792 13.7C53.246 13.4666 54.046 13.1333 54.6128 13.0333C55.6793 12.8 57.046 11.4666 57.046 10.6666C57.046 10.4333 57.2793 10.0667 57.546 9.83332C58.1793 9.3 58.1793 7.7 57.546 7.16665C56.5128 6.33332 52.0793 7.63333 51.2793 9.03333C51.146 9.3 50.7127 9.5 50.3792 9.5C50.0127 9.5 49.1128 10.1 48.3128 10.8333C47.0128 12.1 46.846 12.1667 46.0127 11.7667C45.5127 11.5 44.546 10.5666 43.8792 9.66665C40.246 4.83332 35.046 1.76666 28.5793 0.633325C25.3793 0.0666588 22.7794 0.0666582 19.346 0.666657ZM57.1792 8.3C57.4792 8.73333 57.4128 8.96668 56.9793 9.3C56.646 9.53333 56.3792 10 56.3792 10.3C56.3792 11.1333 54.846 12.5 53.9128 12.5C53.4793 12.5 53.046 12.6667 52.9793 12.8667C52.9128 13.0333 52.1792 13.3 51.3792 13.4C49.9792 13.6 47.7127 14.9667 47.7127 15.6C47.7127 15.7333 48.3128 16.4666 49.0793 17.2C50.346 18.4333 50.4127 18.6 50.2127 19.9C50.046 20.8667 50.0793 21.2 50.346 21C50.5793 20.8667 50.946 20.9666 51.2127 21.1666C52.446 22.1666 51.146 24.3 49.3128 24.3333L48.146 24.4L47.946 21.0333C47.8127 18.6 47.546 17.0667 46.946 15.5C45.546 11.7333 45.5793 11.9 46.4128 12.8333C46.946 13.4667 47.1793 13.5333 47.3128 13.2C47.3793 12.9333 47.9793 12.1666 48.6128 11.4667C49.4793 10.5333 50.046 10.1666 50.746 10.1666C51.4792 10.1666 51.8127 9.96667 52.0127 9.4C52.346 8.56667 53.546 7.93333 55.2127 7.73333C56.5792 7.56668 56.7792 7.6 57.1792 8.3ZM48.8128 27.3668C49.246 29 49.0128 32 48.4128 32.6C48.046 32.9668 47.6128 27.5 47.9128 26.3668C48.1793 25.2333 48.2793 25.3668 48.8128 27.3668Z"
                      stroke="black"
                      stroke-width="1.75"
                    />
                    <path
                      d="M6.71271 20.4667C6.71271 20.6334 6.87938 20.9 7.04606 21C7.24606 21.1334 7.27938 21.4334 7.07938 21.7667C6.64606 22.5667 7.01271 24.1667 7.61271 24.1667C7.97938 24.1667 8.07938 23.8667 7.97938 23C7.81271 21.6667 8.01271 21.5667 8.91271 22.5334C9.54606 23.2334 9.54606 23.2334 8.54606 24.0334C7.64606 24.7334 7.61271 24.8334 8.24606 24.8334C9.04606 24.8334 10.0461 23.8667 10.0461 23.1C10.0461 22.8 9.47938 22.1334 8.81271 21.6C7.11271 20.3 6.71271 20.0667 6.71271 20.4667Z"
                      fill="black"
                      stroke="black"
                      stroke-width="0.25"
                    />
                    <path
                      d="M26.8128 27.9332C25.846 28.9667 25.3128 30.1332 25.5128 30.7C25.746 31.3332 26.2128 31.3 26.8795 30.6C27.4128 30.1 27.4128 30 26.9128 29.6667C26.4128 29.3 26.446 29.1667 27.0795 28.3667C27.946 27.2332 27.746 26.9 26.8128 27.9332Z"
                      fill="black"
                      stroke="black"
                      stroke-width="0.25"
                    />
                    <path
                      d="M5.31275 36.4001C4.31275 36.5668 4.0794 37.0668 4.8794 37.3668C5.54608 37.6333 6.71275 37.3333 7.54608 36.7001C8.1794 36.2001 8.1794 36.2001 7.21275 36.2333C6.6794 36.2333 5.81275 36.3333 5.31275 36.4001Z"
                      fill="black"
                      stroke="black"
                      stroke-width="0.25"
                    />
                  </g>
                  <defs>
                    <clipPath id="clip0_2063_10">
                      <rect width="58.25" height="75.5" fill="white" />
                    </clipPath>
                  </defs>
                </svg>
              </g>

              <!-- body -->
              <g>
                <svg
                  width="189"
                  height="290"
                  viewBox="0 0 189 290"
                  fill="none"
                  xmlns="http://www.w3.org/2000/svg"
                >
                  <g clip-path="url(#clip0_2063_15)">
                    <path
                      d="M107 0.450058C106.1 0.716725 104.133 1.48339 102.667 2.15006L99.9999 3.31671L97.2999 7.55006C95.7999 9.85006 93.4999 13.7834 92.1667 16.2501C90.8332 18.7167 89.2332 21.55 88.5999 22.55C87.2999 24.5167 83.5667 33.0835 82.4999 36.4835C81.4999 39.7167 81.6332 42.4835 82.9999 48.0167C83.6667 50.6167 84.4999 53.65 84.8667 54.75C85.2332 55.85 85.8332 57.7167 86.2332 58.9167C86.5999 60.1167 87.1667 61.6167 87.4999 62.25C87.7999 62.8835 88.1999 63.95 88.3332 64.5835C88.4332 65.2167 88.7999 66.3835 89.0667 67.1835C90.6667 71.5167 86.0999 87.2835 79.1999 101.417C76.5999 106.717 74.5667 111.45 72.6667 116.75C71.1332 120.95 69.1332 126.15 68.2332 128.25C66.3667 132.617 65.0999 136.483 63.1332 143.917C62.3999 146.75 60.4332 153.117 58.8332 158.083C56.1332 166.35 54.6999 171.15 52.3332 180.083C51.8332 181.917 50.2332 187.083 48.7999 191.583C46.1667 199.683 44.4999 205.983 42.4999 215.25C39.5332 228.95 38.5332 232.583 35.4667 240.417C32.5332 247.917 31.2332 249.883 25.5332 255.617C20.7 260.45 14.8333 265.45 11.7666 267.35C10.9 267.883 8.66661 268.783 6.79996 269.283C3.29996 270.283 0.599957 271.583 0.266624 272.45C0.0332908 273.083 1.79996 274.983 3.83329 276.318C5.63329 277.45 11.8666 279.55 13.9 279.65C14.7 279.682 16.0333 279.618 16.9333 279.483L18.5 279.217V280.217C18.5 281.882 19.0666 282.85 20.4666 283.582C22.2666 284.482 23 284.418 25.7667 283.25C27.0667 282.717 28.3667 282.25 28.6332 282.25C28.8999 282.25 29.5332 282.882 30.0667 283.65C30.5999 284.45 31.5999 285.418 32.3332 285.85C33.8667 286.718 34.0667 286.683 39.6999 285.35L43.4332 284.45L46.5332 285.582C48.2667 286.182 51.0332 287.35 52.6667 288.217L55.6667 289.717L59.9332 289.85C63.3667 289.983 64.7667 289.85 67.2667 289.318C68.9332 288.918 72.1999 288.318 74.4999 287.95C76.7999 287.55 80.4667 286.883 82.6667 286.418C88.2999 285.25 90.6999 285.317 94.5999 286.717C99.8332 288.617 102.833 289.017 113.333 289.15C120.867 289.282 123.333 289.183 126.167 288.75C128.1 288.45 131.233 287.982 133.133 287.717C135.033 287.482 137.133 287.118 137.8 286.918C138.467 286.75 140.1 286.582 141.4 286.582C144.267 286.582 146.1 285.917 147.133 284.582C147.8 283.65 148 283.582 150.1 283.582C155.7 283.582 158.8 282.318 165 277.45C169.667 273.85 175.533 267.617 176.7 265.082C177.433 263.517 177.567 263.418 178.9 263.25C180.2 263.082 180.467 262.883 181.967 260.883C182.867 259.683 184.467 257.117 185.5 255.217C186.933 252.582 187.567 251.782 188 251.85C188.433 251.95 188.533 251.817 188.367 251.417C188.267 251.117 188.167 250.582 188.167 250.25C188.167 249.917 187.967 249.417 187.733 249.183C186.5 247.917 180.967 237.517 175.533 226.283C171.1 217.117 170.667 216.05 167.167 205.917C165.567 201.25 163.233 194.717 162 191.417C160.767 188.117 159.167 183.617 158.433 181.417C157.7 179.217 156.067 174.483 154.833 170.917C150.8 159.317 148.667 151.117 147.167 141.417C146.333 136.117 142.833 123.05 140.667 117.25C139.867 115.15 138.533 111.45 137.667 109.083C136.8 106.683 135.633 103.617 135.133 102.25C133.867 98.9835 133.4 97.1167 132.333 90.9167C131.433 85.8835 131.433 85.55 131.667 77.9167C132.167 63.4167 132 45.5835 131.4 40.75C130.3 32.4167 129.833 27.2835 129.533 20.2167C129.233 13.5834 129.133 12.8501 128.167 9.81671C126.6 4.98339 124.4 2.51671 120.267 0.88339C118.633 0.250058 117.6 0.116725 113.5 0.0167247C109.9 -0.0499419 108.233 0.0500581 107 0.450058ZM120.767 7.38339C123.367 8.08339 125.933 10.1834 127.067 12.5834C128 14.5501 128.8 20.3834 128.833 25.1835C128.833 29.9167 128.5 31.1167 126.5 33.8835C123.867 37.45 118.633 37.25 110.033 33.2835C106.467 31.6167 104.833 30.1167 104.833 28.4167C104.833 26.8167 106.7 19.85 107.567 18.0834C107.933 17.3834 108.667 15.7834 109.167 14.5834C110.733 10.7167 113.167 8.31671 116.467 7.41671C118.467 6.85006 118.7 6.85006 120.767 7.38339Z"
                      fill="#F1EBE5"
                    />
                    <path
                      d="M91.2999 19.25C90.6332 20.45 89.5999 22.15 88.9999 23.0834C87.8332 24.8834 83.8999 33.95 83.0332 36.8835C82.1332 39.95 82.3332 42.55 83.9999 49.05C84.8332 52.2835 85.7332 55.4167 86.0332 56.0167C86.3332 56.5835 86.9332 58.05 87.3332 59.25C87.7667 60.45 88.6332 62.9835 89.3332 64.9167C90.5332 68.25 90.5667 68.55 90.3667 71.25C90.2667 72.8167 89.8667 75.05 89.5332 76.25C89.1667 77.45 88.5667 79.5167 88.1999 80.85C86.1332 87.9835 83.3667 95.1167 80.2332 101.45C76.1667 109.55 76.3667 109.117 73.2667 117.75C71.8999 121.583 70.1667 126.083 69.4332 127.75C67.4667 132.15 65.8999 136.617 64.9999 140.417C64.5667 142.25 63.8999 144.65 63.4999 145.717C63.1332 146.817 62.8332 148.083 62.8332 148.583C62.8332 149.05 62.6999 149.583 62.5332 149.75C61.9999 150.317 56.5332 167.45 54.6332 174.583C52.4332 182.65 51.3999 186.183 48.9667 193.583C46.5332 200.983 44.8667 207.583 42.3332 219.75C39.6999 232.383 35.6667 244.083 31.9999 249.55C30.1332 252.382 21.8333 260.617 16.6666 264.75C12.4 268.217 10.5 269.25 6.89996 270.117C4.53329 270.717 1.69996 271.982 1.29996 272.65C0.966624 273.217 3.63329 275.518 5.66661 276.418C6.59996 276.818 8.79996 277.55 10.6333 278.082C13.3 278.817 14.2666 278.95 15.6333 278.75C19.3666 278.217 19.3333 278.182 19.4333 280.182C19.5333 281.75 19.6333 282.017 20.6 282.582C22.0333 283.45 23.0333 283.418 25.3667 282.383C26.4667 281.883 27.8999 281.483 28.5999 281.45C29.9667 281.418 30.0332 281.483 32.2667 284.383C33.4332 285.883 34.0999 285.917 39.0332 284.717C43.9999 283.517 44.8999 283.683 52.6667 287.35L56.3332 289.05L60.8332 289.017C64.1332 289.017 66.1332 288.818 68.3667 288.318C69.9999 287.918 73.3332 287.318 75.7332 286.918C78.1332 286.55 81.4332 285.917 83.0332 285.517C84.9667 285.05 87.0332 284.818 88.9999 284.818C91.5999 284.818 92.3332 284.95 94.5332 285.85C96.0332 286.483 99.0332 287.25 101.833 287.783C106.5 288.618 106.933 288.65 116 288.483C123.167 288.35 125.833 288.183 127.5 287.783C128.7 287.45 131.333 287.018 133.333 286.75C135.367 286.482 137.8 286.118 138.8 285.95C139.767 285.75 141.3 285.582 142.2 285.582C144.3 285.582 145.467 285.118 146.533 283.85C147.4 282.818 147.467 282.782 151.367 282.55C157.233 282.182 157.567 282.017 164 277.15C170.267 272.382 175.7 266.382 176.933 262.75C177 262.582 177.533 262.482 178.167 262.517C179.1 262.582 179.5 262.382 180.667 261.117C181.4 260.317 182.833 258.15 183.8 256.35C184.8 254.55 185.967 252.517 186.4 251.817L187.2 250.55L186.067 248.483C185.433 247.35 183.833 244.483 182.5 242.083C179.567 236.85 171.333 219.917 169.567 215.35C168.833 213.55 167.633 210.117 166.833 207.75C166.067 205.35 164 199.517 162.267 194.75C160.5 189.983 157.933 182.617 156.5 178.417C155.067 174.183 153.6 169.983 153.2 169.017C152.3 166.717 150.1 159.383 148.867 154.417C147.967 150.75 147.033 146.083 145.633 138.083C145.333 136.417 144.667 133.65 144.133 131.917C143.633 130.183 142.9 127.583 142.533 126.183C141.8 123.483 140.067 118.85 137.833 113.75C135.667 108.783 132.467 98.6167 131.833 94.75C130.233 84.7835 130.133 81.05 131.1 70.9167C131.533 66.6835 131.3 46.8167 130.767 43.25C130.567 41.8835 130.367 39.7835 130.3 38.5835C130.267 37.3835 130.067 35.5835 129.867 34.5835C129.667 33.5835 129.467 32.2835 129.433 31.75C129.333 30.8167 129.3 30.85 128.433 32.6167C125.433 38.7167 120.133 39.45 111.167 35.0167C109.8 34.3167 107.733 32.9835 106.6 31.9835L104.5 30.1835V28.1167C104.5 25.8167 106.033 19.85 107.333 17.0834C107.767 16.15 108.367 14.7501 108.7 13.9167C109.967 10.7167 113.133 7.65006 115.967 6.88339C118.033 6.31671 121.6 6.71671 123.3 7.71671C124.767 8.55006 127.167 10.9834 127.167 11.5834C127.167 11.7834 127.333 11.9167 127.5 11.9167C128.233 11.9167 127.767 10.1167 126.433 7.71671C124.867 4.95006 124.033 4.18339 122 3.61671C118.433 2.61671 115.333 3.61671 109.333 7.61671C106.567 9.45006 105.2 10.9167 103 14.2501C101.067 17.2834 98.1667 22.75 98.1667 23.4167C98.1667 24.0834 98.1999 24.0834 95.7667 22.7167C94.6332 22.05 93.1999 21.3167 92.5999 21.0834L90.3745 19.5M107 0.450058C106.1 0.716725 104.133 1.48339 102.667 2.15006L99.9999 3.31671L97.2999 7.55006C95.7999 9.85006 93.4999 13.7834 92.1667 16.2501C90.8332 18.7167 89.2332 21.55 88.5999 22.55C87.2999 24.5167 83.5667 33.0835 82.4999 36.4835C81.4999 39.7167 81.6332 42.4835 82.9999 48.0167C83.6667 50.6167 84.4999 53.65 84.8667 54.75C85.2332 55.85 85.8332 57.7167 86.2332 58.9167C86.5999 60.1167 87.1667 61.6167 87.4999 62.25C87.7999 62.8835 88.1999 63.95 88.3332 64.5835C88.4332 65.2167 88.7999 66.3835 89.0667 67.1835C90.6667 71.5167 86.0999 87.2835 79.1999 101.417C76.5999 106.717 74.5667 111.45 72.6667 116.75C71.1332 120.95 69.1332 126.15 68.2332 128.25C66.3667 132.617 65.0999 136.483 63.1332 143.917C62.3999 146.75 60.4332 153.117 58.8332 158.083C56.1332 166.35 54.6999 171.15 52.3332 180.083C51.8332 181.917 50.2332 187.083 48.7999 191.583C46.1667 199.683 44.4999 205.983 42.4999 215.25C39.5332 228.95 38.5332 232.583 35.4667 240.417C32.5332 247.917 31.2332 249.883 25.5332 255.617C20.7 260.45 14.8333 265.45 11.7666 267.35C10.9 267.883 8.66661 268.783 6.79996 269.283C3.29996 270.283 0.599957 271.583 0.266624 272.45C0.0332908 273.083 1.79996 274.983 3.83329 276.318C5.63329 277.45 11.8666 279.55 13.9 279.65C14.7 279.682 16.0333 279.618 16.9333 279.483L18.5 279.217V280.217C18.5 281.882 19.0666 282.85 20.4666 283.582C22.2666 284.482 23 284.418 25.7667 283.25C27.0667 282.717 28.3667 282.25 28.6332 282.25C28.8999 282.25 29.5332 282.882 30.0667 283.65C30.5999 284.45 31.5999 285.418 32.3332 285.85C33.8667 286.718 34.0667 286.683 39.6999 285.35L43.4332 284.45L46.5332 285.582C48.2667 286.182 51.0332 287.35 52.6667 288.217L55.6667 289.717L59.9332 289.85C63.3667 289.983 64.7667 289.85 67.2667 289.318C68.9332 288.918 72.1999 288.318 74.4999 287.95C76.7999 287.55 80.4667 286.883 82.6667 286.418C88.2999 285.25 90.6999 285.317 94.5999 286.717C99.8332 288.617 102.833 289.017 113.333 289.15C120.867 289.282 123.333 289.183 126.167 288.75C128.1 288.45 131.233 287.982 133.133 287.717C135.033 287.482 137.133 287.118 137.8 286.918C138.467 286.75 140.1 286.582 141.4 286.582C144.267 286.582 146.1 285.917 147.133 284.582C147.8 283.65 148 283.582 150.1 283.582C155.7 283.582 158.8 282.318 165 277.45C169.667 273.85 175.533 267.617 176.7 265.082C177.433 263.517 177.567 263.418 178.9 263.25C180.2 263.082 180.467 262.883 181.967 260.883C182.867 259.683 184.467 257.117 185.5 255.217C186.933 252.582 187.567 251.782 188 251.85C188.433 251.95 188.533 251.817 188.367 251.417C188.267 251.117 188.167 250.582 188.167 250.25C188.167 249.917 187.967 249.417 187.733 249.183C186.5 247.917 180.967 237.517 175.533 226.283C171.1 217.117 170.667 216.05 167.167 205.917C165.567 201.25 163.233 194.717 162 191.417C160.767 188.117 159.167 183.617 158.433 181.417C157.7 179.217 156.067 174.483 154.833 170.917C150.8 159.317 148.667 151.117 147.167 141.417C146.333 136.117 142.833 123.05 140.667 117.25C139.867 115.15 138.533 111.45 137.667 109.083C136.8 106.683 135.633 103.617 135.133 102.25C133.867 98.9835 133.4 97.1167 132.333 90.9167C131.433 85.8835 131.433 85.55 131.667 77.9167C132.167 63.4167 132 45.5835 131.4 40.75C130.3 32.4167 129.833 27.2835 129.533 20.2167C129.233 13.5834 129.133 12.8501 128.167 9.81671C126.6 4.98339 124.4 2.51671 120.267 0.88339C118.633 0.250058 117.6 0.116725 113.5 0.0167247C109.9 -0.0499419 108.233 0.0500581 107 0.450058ZM120.767 7.38339C123.367 8.08339 125.933 10.1834 127.067 12.5834C128 14.5501 128.8 20.3834 128.833 25.1835C128.833 29.9167 128.5 31.1167 126.5 33.8835C123.867 37.45 118.633 37.25 110.033 33.2835C106.467 31.6167 104.833 30.1167 104.833 28.4167C104.833 26.8167 106.7 19.85 107.567 18.0834C107.933 17.3834 108.667 15.7834 109.167 14.5834C110.733 10.7167 113.167 8.31671 116.467 7.41671C118.467 6.85006 118.7 6.85006 120.767 7.38339Z"
                      stroke="black"
                      stroke-width="1.5"
                    />
                    <path
                      d="M129.5 122.65C129.5 122.983 130.3 125.383 131.3 127.983C132.3 130.617 133.4 133.883 133.8 135.25C134.7 138.55 135.733 145.317 136.167 150.917C136.467 154.983 137.533 169.75 138.033 176.417C138.133 177.883 138.5 181.483 138.833 184.417C139.167 187.35 139.567 190.717 139.667 191.917C139.933 194.217 140.467 195.783 140.5 194.25C140.5 193.783 140.367 192.517 140.2 191.417C140.033 190.317 139.8 188.35 139.667 187.083C139.567 185.783 139.167 182.117 138.833 178.917C138.5 175.717 138.1 171.283 138 169.083C137.8 165.417 137.3 158.45 136.5 148.683C136.133 144.183 135.367 139.483 134.333 135.417C133.5 132.217 129.533 121.683 129.5 122.65Z"
                      stroke="black"
                      stroke-width="1.5"
                    />
                    <path
                      d="M87.7333 144.583C87.4333 149.583 86.5667 167.617 86.3332 174.417C86.2332 177.35 86.0667 181.25 86 183.083C85.2 198.617 84.4332 235.917 84.8 239.583C85 241.55 85.0667 240.65 85.1332 235.25C85.1667 228.717 85.3667 220.95 86.1667 194.25C86.5 183.217 86.7332 177.217 87.8667 154.417C88.0332 150.383 88.1667 145.65 88.1 143.917L88 140.75L87.7333 144.583Z"
                      stroke="black"
                      stroke-width="1.5"
                    />
                    <path
                      d="M76.8332 146.817C76.7667 149.483 74.9332 161.617 73.8 166.917C69.6332 186.45 66.9 194.883 58.1667 215.25C55.9332 220.483 53.1332 227.15 51.9332 230.083C47.1667 241.917 39.5667 264.05 40.7667 262.75C40.9332 262.55 41.7 260.382 42.4667 257.917C44.3332 252.05 49.6332 237.217 51.7667 231.917C52.6667 229.617 55.4 223.083 57.8332 217.417C66.5667 196.883 69.1332 189.583 72.3 175.917C72.8 173.817 73.4332 171.15 73.7 169.983C74.6332 165.917 76.1667 157.117 76.5 153.65C76.7 151.75 77 149.417 77.1667 148.517C77.3667 147.583 77.5 146.783 77.5 146.717C77.5 146.45 76.8332 146.583 76.8332 146.817Z"
                      stroke="black"
                      stroke-width="1.5"
                    />
                    <path
                      d="M103.033 150.483C102.933 150.817 102.867 158.217 102.9 166.917C102.967 180.983 102.867 183.65 102.2 190.75C100.667 207.35 100.5 209.617 100.1 217.083C99.8 222.983 99.8 227.283 100.1 235.75C100.333 241.783 100.5 248.583 100.5 250.818C100.5 254.283 99.9 260.717 99.3 263.582C99.1668 264.217 99.2 264.283 99.4668 263.918C99.6333 263.618 100.067 262.05 100.4 260.418C100.933 257.75 100.967 256.15 100.833 245.75C100.467 218.217 100.667 211.583 102.4 194.917C103.233 187.217 103.267 185.65 103.3 168.35C103.333 158.217 103.3 149.917 103.267 149.917C103.233 149.917 103.133 150.183 103.033 150.483Z"
                      stroke="black"
                      stroke-width="1.5"
                    />
                    <path
                      d="M113.167 158.817C113.133 168.183 113.1 168.783 110.667 186.75C110.233 190.05 109.467 195.75 109 199.417C108.567 203.083 107.867 208.55 107.467 211.583C107.1 214.617 106.7 218.217 106.667 219.583C106.5 222.583 107.6 215.317 109 204.083C109.467 200.05 110.167 194.65 110.5 192.083C110.867 189.517 111.233 186.583 111.333 185.583C111.467 184.583 111.833 181.783 112.2 179.35C113.6 169.85 114.4 152.65 113.5 152.083C113.267 151.95 113.167 154.283 113.167 158.817Z"
                      stroke="black"
                      stroke-width="1.5"
                    />
                    <path
                      d="M149.833 191.85C149.833 193.017 153.033 201.25 156.4 208.75C159.433 215.517 161.933 221.217 170.067 239.917C174 248.95 175.7 252.583 176 252.583C176.1 252.583 175.967 252.083 175.7 251.483C175.467 250.918 173.7 246.883 171.833 242.583C169.967 238.283 167.033 231.517 165.333 227.583C163.633 223.65 160.7 217.05 158.833 212.917C154.067 202.35 152.6 198.917 151.267 194.917C150 191.117 149.833 190.783 149.833 191.85Z"
                      stroke="black"
                      stroke-width="1.5"
                    />
                    <path
                      d="M141.833 205.917C141.833 207.283 142.867 214.15 143.667 217.917C144.9 223.883 146.5 234.65 148.667 251.917C149.8 260.85 151.167 269.618 151.567 270.25C151.767 270.583 151.8 270.283 151.633 269.418C151.533 268.683 151.3 267.182 151.167 266.082C151 264.982 150.6 261.918 150.2 259.25C149.833 256.582 149.133 251.35 148.667 247.583C146.767 232.35 145.867 226.55 144 216.583C142.933 211.05 142.5 207.95 142.5 206.117C142.5 205.283 142.367 204.583 142.167 204.583C142 204.583 141.833 205.183 141.833 205.917Z"
                      stroke="black"
                      stroke-width="1.5"
                    />
                  </g>
                  <defs>
                    <clipPath id="clip0_2063_15">
                      <rect width="188.5" height="290" fill="white" />
                    </clipPath>
                  </defs>
                </svg>
              </g>

              <!-- left front arm -->
              <g transform="translate(66, 60)" class="left-front-arm">
                <svg
                  width="62px"
                  height="17.5px"
                  viewBox="0 0 248 70"
                  fill="#F1EBE5"
                  stroke="black"
                  stroke-width="6"
                >
                  <path
                    d="M208.8 1.46664C206 2.1333 202.133 3.86663 200.133 5.19997C198.133 6.66663 192.667 8.5333 188 9.3333C183.2 10.1333 146.4 17.4666 106 25.6C65.7334 33.6 30.2668 40.2666 27.3334 40.2666C8.93342 40.1333 -3.99991 51.6 2.53343 62.2666C6.93343 69.3333 18.2668 71.2 29.0668 66.8C32.9334 65.2 41.6001 63.6 52.0001 62.6666C61.2001 61.8666 78.0001 60.4 89.3334 59.3333C118.4 56.6666 152.133 53.6 173.333 51.8666C183.2 51.0666 195.867 50 201.333 49.4666C206.8 48.9333 213.333 48.9333 216 49.4666C225.467 51.6 238.4 46.5333 244.533 38.2666C248.8 32.4 248.4 20.8 243.733 13.7333C237.467 4.1333 221.067 -1.60003 208.8 1.46664Z"
                  />
                </svg>
              </g>

              <!-- left bottom arm -->
              <g transform="translate(110, 15)" class="left-bottom-arm">
                <svg
                  width="18.25px"
                  height="57px"
                  viewBox="0 0 73 228"
                  fill="#F1EBE5"
                  stroke="black"
                  stroke-width="6"
                >
                  <path
                    d="M1.75454 21.8702C3.75454 14.8035 11.2212 6.40353 18.2879 2.93687C29.8879 -2.66313 43.2212 -0.129791 52.9545 9.47021C60.4212 16.9369 63.3545 25.3369 63.3545 39.2036C63.3545 48.0036 64.0212 59.7369 69.3545 132.004C71.8879 165.337 73.0879 200.27 71.8879 206.937C70.9545 213.07 62.1545 223.337 55.7545 226.004C44.1545 230.804 30.1545 226.67 22.6879 216.137C19.0879 210.937 18.6879 209.47 18.4212 198.404C18.2879 191.737 17.6212 182.404 16.8212 177.47C16.1545 172.67 14.8212 162.67 14.0212 155.337C13.2212 148.004 11.6212 136.004 10.6879 128.67C9.6212 121.337 8.15454 109.604 7.35454 102.67C6.55454 95.7369 4.95454 83.7369 4.0212 76.0036C0.287868 48.6702 -0.112132 43.2036 0.0212017 35.3369C0.154535 30.9369 0.954535 24.9369 1.75454 21.8702Z"
                  />
                </svg>
                <g transform="translate(3, 43)">
                  <svg
                    width="14"
                    height="14"
                    viewBox="0 0 52 52"
                    fill="#F1EBE5"
                    xmlns="http://www.w3.org/2000/svg"
                  >
                    <circle cx="26" cy="26" r="26" fill="#F1EBE5" />
                  </svg>
                </g>
              </g>

              <!-- left front hand -->
              <g transform="translate(54, 68)" class="left-front-hand">
                <svg width="18px" height="14.25px" viewBox="0 0 72 57">
                  <path
                    d="M18.6021 5.59997C18.6021 4.26664 19.2687 2.5333 20.2021 1.59997C21.1354 0.666634 22.3354 -3.05176e-05 23.0021 -3.05176e-05C24.2021 -3.05176e-05 36.2021 7.86664 37.2687 9.46664C37.8021 10.1333 64.3354 16 67.1354 16C67.9354 16 70.3354 23.0666 71.1354 27.3333C72.6021 35.3333 70.2021 37.0666 44.4688 46.4C10.4688 58.8 0.202081 59.2 1.66875 47.7333C2.06875 44.9333 1.80208 42.2666 1.13541 41.8666C-0.464586 40.9333 -0.331252 33.7333 1.26875 32.6666C2.20208 32.1333 2.20208 30.9333 1.26875 29.2C0.335414 27.6 0.335414 25.8666 1.13541 24.2666C1.80208 22.9333 2.06875 19.3333 1.66875 16.2666C1.00208 10.8 1.00208 10.6666 5.93541 8.5333C8.86875 7.3333 12.7354 6.79997 14.8687 7.19997C17.8021 7.7333 18.6021 7.46664 18.6021 5.59997Z"
                    fill="#F1EBE5"
                    stroke="black"
                    stroke-width="6"
                  />
                </svg>
                <g transform="translate(14, 4)">
                  <svg
                    width="5"
                    height="5"
                    viewBox="0 0 52 52"
                    fill="#F1EBE5"
                    xmlns="http://www.w3.org/2000/svg"
                  >
                    <circle cx="26" cy="26" r="26" fill="#F1EBE5" />
                  </svg>
                </g>
              </g>
            </svg>
